<svg xmlns="http://www.w3.org/2000/svg" width="900" height="1750" viewBox="0 0 900 1750" role="img" aria-label="Living deep ocean ecosystem">
<defs>
<linearGradient id="sea" x1="0" y1="0" x2="0" y2="1">
  <stop offset="0" stop-color="#0b2740"/>
  <stop offset="0.18" stop-color="#081a30"/>
  <stop offset="0.45" stop-color="#060f22"/>
  <stop offset="0.75" stop-color="#040a18"/>
  <stop offset="1" stop-color="#02050d"/>
</linearGradient>
<linearGradient id="tunaGrad" x1="0" y1="0" x2="0" y2="1">
  <stop offset="0" stop-color="#5a7184"/><stop offset="0.55" stop-color="#b8c8d4"/>
  <stop offset="1" stop-color="#7d96a8"/>
</linearGradient>
<linearGradient id="sharkGrad" x1="0" y1="0" x2="0" y2="1">
  <stop offset="0" stop-color="#3a4654"/><stop offset="0.6" stop-color="#2a3848"/>
  <stop offset="1" stop-color="#1d2a44"/>
</linearGradient>
<linearGradient id="flyGrad" x1="0" y1="0" x2="0" y2="1">
  <stop offset="0" stop-color="#7d96a8"/><stop offset="1" stop-color="#aebfd0"/>
</linearGradient>
<linearGradient id="iridGrad" x1="0" y1="0" x2="1" y2="1">
  <stop offset="0" stop-color="#14e0c8"/><stop offset="0.5" stop-color="#4f5fd5"/>
  <stop offset="1" stop-color="#b8c8d4"/>
</linearGradient>
<radialGradient id="lureHalo">
  <stop offset="0" stop-color="#14e0c8" stop-opacity="0.5"/>
  <stop offset="1" stop-color="#14e0c8" stop-opacity="0"/>
</radialGradient>
<radialGradient id="dragonHalo">
  <stop offset="0" stop-color="#2a3b8f" stop-opacity="0.35"/>
  <stop offset="1" stop-color="#2a3b8f" stop-opacity="0"/>
</radialGradient>
<filter id="blur2"><feGaussianBlur stdDeviation="2"/></filter>
<filter id="blur4"><feGaussianBlur stdDeviation="4"/></filter>
<filter id="blur6"><feGaussianBlur stdDeviation="6"/></filter>
<filter id="glowS" x="-80%" y="-80%" width="260%" height="260%">
  <feGaussianBlur stdDeviation="2.2" result="b"/>
  <feMerge><feMergeNode in="b"/><feMergeNode in="SourceGraphic"/></feMerge>
</filter>
</defs>
<style>
  text { font-family: JetBrains Mono, Fira Code, Consolas, monospace; }
  .lbl   { font-size: 12px; fill: #cfe8e6; letter-spacing: 1px; }
  .sub   { font-size: 9px;  fill: #5f7a82; letter-spacing: 1px; }
  .jlbl  { font-size: 10px; fill: #cfe8e6; letter-spacing: 1px; }
  .plate { font-size: 17px; fill: #e8f4f2; letter-spacing: 4px; font-weight: bold; }
  .platesub { font-size: 9px; fill: #5f7a82; letter-spacing: 2px; }
  .zone  { font-size: 11px; letter-spacing: 2px; }
  .gval  { font-size: 15px; font-weight: bold; }
  .glbl  { font-size: 8px; fill: #5f7a82; letter-spacing: 1.5px; }
  .stamp { font-size: 8px; fill: #5f7a82; letter-spacing: 1px; }
  .caption { font-size: 11px; fill: #5f7a82; letter-spacing: 5px; }
  .dlabel  { font-size: 13px; fill: #cfe8e6; letter-spacing: 3px; }
  .dsub    { font-size: 10px; fill: #5f7a82; letter-spacing: 2px; }

  .swim        { animation: swim 9s ease-in-out infinite; }
  .drift       { animation: drift 7s ease-in-out infinite; }
  .dragonfloat { animation: dfloat 12s ease-in-out infinite; }
  .sway        { animation: sway 5s ease-in-out infinite; transform-origin: 0 0; }
  .pulse       { animation: pulse 4s ease-in-out infinite; }
  .jpulse      { animation: jpulse 4.5s ease-in-out infinite; transform-origin: 0 0; }
  .flicker     { animation: flicker 2.2s steps(2, start) infinite; }
  .gaugepulse  { animation: pulse 5s ease-in-out infinite; }
  .bubble      { animation: rise 14s linear infinite; }
  .ray         { animation: raypulse 11s ease-in-out infinite; }

  @keyframes swim   { 0%,100% { transform: translate(0,0); } 50% { transform: translate(14px,-7px); } }
  @keyframes drift  { 0%,100% { transform: translate(0,0); } 50% { transform: translate(-8px,-16px); } }
  @keyframes dfloat { 0%,100% { transform: translate(0,0); } 50% { transform: translate(0,-14px); } }
  @keyframes sway   { 0%,100% { transform: rotate(0deg); } 50% { transform: rotate(6deg); } }
  @keyframes pulse  { 0%,100% { opacity: 1; } 50% { opacity: 0.45; } }
  @keyframes jpulse { 0%,100% { transform: scale(1,1); } 50% { transform: scale(1.08,0.92); } }
  @keyframes flicker { 0%,100% { opacity: 1; } 50% { opacity: 0.2; } }
  @keyframes rise   { 0% { transform: translateY(0); opacity: 0; } 8% { opacity: 0.5; }
                       92% { opacity: 0.4; } 100% { transform: translateY(-520px); opacity: 0; } }
  @keyframes raypulse { 0%,100% { opacity: 0.04; } 50% { opacity: 0.10; } }
</style>
<rect width="900" height="1750" fill="url(#sea)"/><polygon points="90,-40 136,-40 210,430 148,430" fill="#0fb8ad" class="ray" style="animation-delay:0.0s" opacity="0.07" filter="url(#blur6)"/><polygon points="270,-40 316,-40 390,430 328,430" fill="#0fb8ad" class="ray" style="animation-delay:1.8s" opacity="0.07" filter="url(#blur6)"/><polygon points="450,-40 496,-40 570,430 508,430" fill="#0fb8ad" class="ray" style="animation-delay:3.6s" opacity="0.07" filter="url(#blur6)"/><polygon points="630,-40 676,-40 750,430 688,430" fill="#0fb8ad" class="ray" style="animation-delay:5.4s" opacity="0.07" filter="url(#blur6)"/><polygon points="810,-40 856,-40 930,430 868,430" fill="#0fb8ad" class="ray" style="animation-delay:7.2s" opacity="0.07" filter="url(#blur6)"/><circle cx="575" cy="44" r="0.7" fill="#b8c8d4" opacity="0.09"/><circle cx="663" cy="1184" r="1.3" fill="#b8c8d4" opacity="0.07"/><circle cx="380" cy="52" r="0.7" fill="#b8c8d4" opacity="0.15"/><circle cx="24" cy="348" r="1.1" fill="#b8c8d4" opacity="0.16"/><circle cx="198" cy="1031" r="1.2" fill="#b8c8d4" opacity="0.05"/><circle cx="725" cy="1222" r="0.8" fill="#b8c8d4" opacity="0.08"/><circle cx="861" cy="589" r="0.6" fill="#b8c8d4" opacity="0.07"/><circle cx="763" cy="1057" r="1.2" fill="#b8c8d4" opacity="0.20"/><circle cx="483" cy="1703" r="0.8" fill="#b8c8d4" opacity="0.16"/><circle cx="746" cy="1082" r="1.3" fill="#b8c8d4" opacity="0.17"/><circle cx="634" cy="80" r="0.7" fill="#b8c8d4" opacity="0.11"/><circle cx="72" cy="407" r="0.6" fill="#b8c8d4" opacity="0.11"/><circle cx="572" cy="638" r="0.8" fill="#b8c8d4" opacity="0.09"/><circle cx="240" cy="1639" r="1.1" fill="#b8c8d4" opacity="0.17"/><circle cx="154" cy="1276" r="0.6" fill="#b8c8d4" opacity="0.13"/><circle cx="891" cy="1120" r="1.0" fill="#b8c8d4" opacity="0.19"/><circle cx="759" cy="1358" r="0.7" fill="#b8c8d4" opacity="0.06"/><circle cx="284" cy="469" r="0.7" fill="#b8c8d4" opacity="0.24"/><circle cx="789" cy="551" r="1.1" fill="#b8c8d4" opacity="0.13"/><circle cx="823" cy="803" r="0.7" fill="#b8c8d4" opacity="0.10"/><circle cx="505" cy="460" r="1.0" fill="#b8c8d4" opacity="0.23"/><circle cx="359" cy="384" r="1.4" fill="#b8c8d4" opacity="0.15"/><circle cx="82" cy="82" r="0.6" fill="#b8c8d4" opacity="0.18"/><circle cx="713" cy="739" r="0.6" fill="#b8c8d4" opacity="0.13"/><circle cx="897" cy="926" r="1.4" fill="#b8c8d4" opacity="0.22"/><circle cx="10" cy="1261" r="1.1" fill="#b8c8d4" opacity="0.16"/><circle cx="240" cy="1122" r="0.6" fill="#b8c8d4" opacity="0.14"/><circle cx="408" cy="1669" r="1.3" fill="#b8c8d4" opacity="0.10"/><circle cx="451" cy="313" r="1.3" fill="#b8c8d4" opacity="0.22"/><circle cx="269" cy="1118" r="1.0" fill="#b8c8d4" opacity="0.08"/><circle cx="686" cy="944" r="1.2" fill="#b8c8d4" opacity="0.16"/><circle cx="1" cy="567" r="0.5" fill="#b8c8d4" opacity="0.24"/><circle cx="791" cy="1455" r="0.8" fill="#b8c8d4" opacity="0.06"/><circle cx="790" cy="1657" r="0.6" fill="#b8c8d4" opacity="0.15"/><circle cx="62" cy="1331" r="1.2" fill="#b8c8d4" opacity="0.08"/><circle cx="428" cy="962" r="0.7" fill="#b8c8d4" opacity="0.22"/><circle cx="381" cy="371" r="1.0" fill="#b8c8d4" opacity="0.20"/><circle cx="181" cy="546" r="1.4" fill="#b8c8d4" opacity="0.18"/><circle cx="394" cy="906" r="0.6" fill="#b8c8d4" opacity="0.09"/><circle cx="304" cy="1030" r="0.7" fill="#b8c8d4" opacity="0.09"/><circle cx="64" cy="1104" r="0.7" fill="#b8c8d4" opacity="0.23"/><circle cx="774" cy="124" r="0.7" fill="#b8c8d4" opacity="0.18"/><circle cx="193" cy="232" r="1.3" fill="#b8c8d4" opacity="0.16"/><circle cx="425" cy="1373" r="1.2" fill="#b8c8d4" opacity="0.09"/><circle cx="87" cy="754" r="0.9" fill="#b8c8d4" opacity="0.14"/><circle cx="656" cy="1178" r="1.4" fill="#b8c8d4" opacity="0.07"/><circle cx="362" cy="594" r="1.3" fill="#b8c8d4" opacity="0.10"/><circle cx="171" cy="785" r="0.9" fill="#b8c8d4" opacity="0.11"/><circle cx="225" cy="1616" r="0.9" fill="#b8c8d4" opacity="0.22"/><circle cx="495" cy="89" r="1.4" fill="#b8c8d4" opacity="0.22"/><circle cx="872" cy="1621" r="1.3" fill="#b8c8d4" opacity="0.08"/><circle cx="437" cy="374" r="0.9" fill="#b8c8d4" opacity="0.06"/><circle cx="341" cy="1724" r="0.7" fill="#b8c8d4" opacity="0.21"/><circle cx="410" cy="740" r="1.4" fill="#b8c8d4" opacity="0.25"/><circle cx="500" cy="1257" r="0.6" fill="#b8c8d4" opacity="0.11"/><circle cx="872" cy="1014" r="1.0" fill="#b8c8d4" opacity="0.20"/><circle cx="51" cy="1022" r="1.0" fill="#b8c8d4" opacity="0.22"/><circle cx="142" cy="1681" r="0.6" fill="#b8c8d4" opacity="0.09"/><circle cx="536" cy="1182" r="0.7" fill="#b8c8d4" opacity="0.07"/><circle cx="801" cy="431" r="1.0" fill="#b8c8d4" opacity="0.17"/><circle cx="377" cy="1021" r="1.0" fill="#b8c8d4" opacity="0.24"/><circle cx="184" cy="1253" r="0.7" fill="#b8c8d4" opacity="0.13"/><circle cx="605" cy="525" r="0.8" fill="#b8c8d4" opacity="0.20"/><circle cx="65" cy="802" r="1.4" fill="#b8c8d4" opacity="0.25"/><circle cx="66" cy="373" r="0.7" fill="#b8c8d4" opacity="0.24"/><circle cx="793" cy="1539" r="0.8" fill="#b8c8d4" opacity="0.08"/><circle cx="750" cy="1231" r="1.1" fill="#b8c8d4" opacity="0.25"/><circle cx="589" cy="14" r="1.2" fill="#b8c8d4" opacity="0.11"/><circle cx="597" cy="1643" r="0.6" fill="#b8c8d4" opacity="0.07"/><circle cx="96" cy="968" r="0.7" fill="#b8c8d4" opacity="0.17"/><circle cx="633" cy="742" r="2.8" fill="none" stroke="#0fb8ad" stroke-width="0.7" class="bubble" style="animation-delay:0.0s"/><circle cx="252" cy="1081" r="3.3" fill="none" stroke="#0fb8ad" stroke-width="0.7" class="bubble" style="animation-delay:1.1s"/><circle cx="741" cy="610" r="2.3" fill="none" stroke="#0fb8ad" stroke-width="0.7" class="bubble" style="animation-delay:2.2s"/><circle cx="262" cy="504" r="3.0" fill="none" stroke="#0fb8ad" stroke-width="0.7" class="bubble" style="animation-delay:3.3s"/><circle cx="565" cy="812" r="3.0" fill="none" stroke="#0fb8ad" stroke-width="0.7" class="bubble" style="animation-delay:4.4s"/><circle cx="493" cy="1009" r="1.5" fill="none" stroke="#0fb8ad" stroke-width="0.7" class="bubble" style="animation-delay:5.5s"/><circle cx="93" cy="1551" r="3.3" fill="none" stroke="#0fb8ad" stroke-width="0.7" class="bubble" style="animation-delay:6.6s"/><circle cx="488" cy="1493" r="2.7" fill="none" stroke="#0fb8ad" stroke-width="0.7" class="bubble" style="animation-delay:7.7s"/><circle cx="154" cy="652" r="2.1" fill="none" stroke="#0fb8ad" stroke-width="0.7" class="bubble" style="animation-delay:8.8s"/><circle cx="785" cy="1447" r="3.2" fill="none" stroke="#0fb8ad" stroke-width="0.7" class="bubble" style="animation-delay:9.9s"/><circle cx="785" cy="750" r="2.0" fill="none" stroke="#0fb8ad" stroke-width="0.7" class="bubble" style="animation-delay:11.0s"/><circle cx="116" cy="1428" r="3.3" fill="none" stroke="#0fb8ad" stroke-width="0.7" class="bubble" style="animation-delay:12.1s"/><path d="M 0,1724 Q 225.0,1698 450.0,1720 T 900,1712 L 900,1750 L 0,1750 Z" fill="#01030a"/>
<text x="450.0" y="58" class="caption" text-anchor="middle">T H E   L I V I N G   D E E P</text>
<g transform="translate(90,140)"><g class="drift" style="animation-delay:0.0s"><path d="M -15.0,0 A 15.0 15.0 0 0 1 15.0,0 Q 12.0,6.8 6.8,5.2 Q 3.0,7.5 0,5.2 Q -3.0,7.5 -6.8,5.2 Q -12.0,6.8 -15.0,0 Z" fill="#2effb0" opacity="0.95" filter="url(#glowS)" class="jpulse"/><path d="M -15.0,0 A 15.0 15.0 0 0 1 15.0,0 Q 12.0,6.8 6.8,5.2 Q 3.0,7.5 0,5.2 Q -3.0,7.5 -6.8,5.2 Q -12.0,6.8 -15.0,0 Z" fill="none" stroke="#2effb0" stroke-width="0.8" opacity="0.47" transform="scale(1.18)" /><path d="M -10.5,5.2 q -3,9.8 2,19.5" stroke="#2effb0" stroke-width="0.9" fill="none" opacity="0.66" class="sway"/><path d="M -5.2,5.2 q 3,11.8 -2,23.6" stroke="#2effb0" stroke-width="0.9" fill="none" opacity="0.66" class="sway"/><path d="M 0.0,5.2 q -3,6.8 2,13.5" stroke="#2effb0" stroke-width="0.9" fill="none" opacity="0.66" class="sway"/><path d="M 5.2,5.2 q 3,12.1 -2,24.3" stroke="#2effb0" stroke-width="0.9" fill="none" opacity="0.66" class="sway"/><path d="M 10.5,5.2 q -3,9.2 2,18.5" stroke="#2effb0" stroke-width="0.9" fill="none" opacity="0.66" class="sway"/><text x="0" y="42" class="jlbl" text-anchor="middle" opacity="0.95">Python</text></g></g><g transform="translate(180,162)"><g class="drift" style="animation-delay:0.7s"><path d="M -15.0,0 A 15.0 15.0 0 0 1 15.0,0 Q 12.0,6.8 6.8,5.2 Q 3.0,7.5 0,5.2 Q -3.0,7.5 -6.8,5.2 Q -12.0,6.8 -15.0,0 Z" fill="#2effb0" opacity="0.95" filter="url(#glowS)" class="jpulse"/><path d="M -15.0,0 A 15.0 15.0 0 0 1 15.0,0 Q 12.0,6.8 6.8,5.2 Q 3.0,7.5 0,5.2 Q -3.0,7.5 -6.8,5.2 Q -12.0,6.8 -15.0,0 Z" fill="none" stroke="#2effb0" stroke-width="0.8" opacity="0.47" transform="scale(1.18)" /><path d="M -10.5,5.2 q -3,9.8 2,19.5" stroke="#2effb0" stroke-width="0.9" fill="none" opacity="0.66" class="sway"/><path d="M -5.2,5.2 q 3,11.8 -2,23.6" stroke="#2effb0" stroke-width="0.9" fill="none" opacity="0.66" class="sway"/><path d="M 0.0,5.2 q -3,6.8 2,13.5" stroke="#2effb0" stroke-width="0.9" fill="none" opacity="0.66" class="sway"/><path d="M 5.2,5.2 q 3,12.1 -2,24.3" stroke="#2effb0" stroke-width="0.9" fill="none" opacity="0.66" class="sway"/><path d="M 10.5,5.2 q -3,9.2 2,18.5" stroke="#2effb0" stroke-width="0.9" fill="none" opacity="0.66" class="sway"/><text x="0" y="42" class="jlbl" text-anchor="middle" opacity="0.95">JavaScript</text></g></g><g transform="translate(270,134)"><g class="drift" style="animation-delay:1.4s"><path d="M -15.0,0 A 15.0 15.0 0 0 1 15.0,0 Q 12.0,6.8 6.8,5.2 Q 3.0,7.5 0,5.2 Q -3.0,7.5 -6.8,5.2 Q -12.0,6.8 -15.0,0 Z" fill="#2effb0" opacity="0.95" filter="url(#glowS)" class="jpulse"/><path d="M -15.0,0 A 15.0 15.0 0 0 1 15.0,0 Q 12.0,6.8 6.8,5.2 Q 3.0,7.5 0,5.2 Q -3.0,7.5 -6.8,5.2 Q -12.0,6.8 -15.0,0 Z" fill="none" stroke="#2effb0" stroke-width="0.8" opacity="0.47" transform="scale(1.18)" /><path d="M -10.5,5.2 q -3,9.8 2,19.5" stroke="#2effb0" stroke-width="0.9" fill="none" opacity="0.66" class="sway"/><path d="M -5.2,5.2 q 3,11.8 -2,23.6" stroke="#2effb0" stroke-width="0.9" fill="none" opacity="0.66" class="sway"/><path d="M 0.0,5.2 q -3,6.8 2,13.5" stroke="#2effb0" stroke-width="0.9" fill="none" opacity="0.66" class="sway"/><path d="M 5.2,5.2 q 3,12.1 -2,24.3" stroke="#2effb0" stroke-width="0.9" fill="none" opacity="0.66" class="sway"/><path d="M 10.5,5.2 q -3,9.2 2,18.5" stroke="#2effb0" stroke-width="0.9" fill="none" opacity="0.66" class="sway"/><text x="0" y="42" class="jlbl" text-anchor="middle" opacity="0.95">CSS</text></g></g><g transform="translate(360,120)"><g class="drift" style="animation-delay:2.1s"><path d="M -11.0,0 A 11.0 11.0 0 0 1 11.0,0 Q 8.8,5.0 5.0,3.8 Q 2.2,5.5 0,3.8 Q -2.2,5.5 -5.0,3.8 Q -8.8,5.0 -11.0,0 Z" fill="#2effb0" opacity="0.95" filter="url(#glowS)" class="jpulse"/><path d="M -11.0,0 A 11.0 11.0 0 0 1 11.0,0 Q 8.8,5.0 5.0,3.8 Q 2.2,5.5 0,3.8 Q -2.2,5.5 -5.0,3.8 Q -8.8,5.0 -11.0,0 Z" fill="none" stroke="#2effb0" stroke-width="0.8" opacity="0.47" transform="scale(1.18)" /><path d="M -7.7,3.8 q -3,7.2 2,14.3" stroke="#2effb0" stroke-width="0.9" fill="none" opacity="0.66" class="sway"/><path d="M -3.8,3.8 q 3,8.6 -2,17.3" stroke="#2effb0" stroke-width="0.9" fill="none" opacity="0.66" class="sway"/><path d="M 0.0,3.8 q -3,5.0 2,9.9" stroke="#2effb0" stroke-width="0.9" fill="none" opacity="0.66" class="sway"/><path d="M 3.8,3.8 q 3,8.9 -2,17.8" stroke="#2effb0" stroke-width="0.9" fill="none" opacity="0.66" class="sway"/><path d="M 7.7,3.8 q -3,6.8 2,13.5" stroke="#2effb0" stroke-width="0.9" fill="none" opacity="0.66" class="sway"/><text x="0" y="33" class="jlbl" text-anchor="middle" opacity="0.95">requests</text></g></g><g transform="translate(450,151)"><g class="drift" style="animation-delay:2.8s"><path d="M -11.0,0 A 11.0 11.0 0 0 1 11.0,0 Q 8.8,5.0 5.0,3.8 Q 2.2,5.5 0,3.8 Q -2.2,5.5 -5.0,3.8 Q -8.8,5.0 -11.0,0 Z" fill="#2effb0" opacity="0.95" filter="url(#glowS)" class="jpulse"/><path d="M -11.0,0 A 11.0 11.0 0 0 1 11.0,0 Q 8.8,5.0 5.0,3.8 Q 2.2,5.5 0,3.8 Q -2.2,5.5 -5.0,3.8 Q -8.8,5.0 -11.0,0 Z" fill="none" stroke="#2effb0" stroke-width="0.8" opacity="0.47" transform="scale(1.18)" /><path d="M -7.7,3.8 q -3,7.2 2,14.3" stroke="#2effb0" stroke-width="0.9" fill="none" opacity="0.66" class="sway"/><path d="M -3.8,3.8 q 3,8.6 -2,17.3" stroke="#2effb0" stroke-width="0.9" fill="none" opacity="0.66" class="sway"/><path d="M 0.0,3.8 q -3,5.0 2,9.9" stroke="#2effb0" stroke-width="0.9" fill="none" opacity="0.66" class="sway"/><path d="M 3.8,3.8 q 3,8.9 -2,17.8" stroke="#2effb0" stroke-width="0.9" fill="none" opacity="0.66" class="sway"/><path d="M 7.7,3.8 q -3,6.8 2,13.5" stroke="#2effb0" stroke-width="0.9" fill="none" opacity="0.66" class="sway"/><text x="0" y="33" class="jlbl" text-anchor="middle" opacity="0.95">next</text></g></g><g transform="translate(540,158)"><g class="drift" style="animation-delay:3.5s"><path d="M -11.0,0 A 11.0 11.0 0 0 1 11.0,0 Q 8.8,5.0 5.0,3.8 Q 2.2,5.5 0,3.8 Q -2.2,5.5 -5.0,3.8 Q -8.8,5.0 -11.0,0 Z" fill="#2effb0" opacity="0.95" filter="url(#glowS)" class="jpulse"/><path d="M -11.0,0 A 11.0 11.0 0 0 1 11.0,0 Q 8.8,5.0 5.0,3.8 Q 2.2,5.5 0,3.8 Q -2.2,5.5 -5.0,3.8 Q -8.8,5.0 -11.0,0 Z" fill="none" stroke="#2effb0" stroke-width="0.8" opacity="0.47" transform="scale(1.18)" /><path d="M -7.7,3.8 q -3,7.2 2,14.3" stroke="#2effb0" stroke-width="0.9" fill="none" opacity="0.66" class="sway"/><path d="M -3.8,3.8 q 3,8.6 -2,17.3" stroke="#2effb0" stroke-width="0.9" fill="none" opacity="0.66" class="sway"/><path d="M 0.0,3.8 q -3,5.0 2,9.9" stroke="#2effb0" stroke-width="0.9" fill="none" opacity="0.66" class="sway"/><path d="M 3.8,3.8 q 3,8.9 -2,17.8" stroke="#2effb0" stroke-width="0.9" fill="none" opacity="0.66" class="sway"/><path d="M 7.7,3.8 q -3,6.8 2,13.5" stroke="#2effb0" stroke-width="0.9" fill="none" opacity="0.66" class="sway"/><text x="0" y="33" class="jlbl" text-anchor="middle" opacity="0.95">react</text></g></g><g transform="translate(630,125)"><g class="drift" style="animation-delay:4.2s"><path d="M -11.0,0 A 11.0 11.0 0 0 1 11.0,0 Q 8.8,5.0 5.0,3.8 Q 2.2,5.5 0,3.8 Q -2.2,5.5 -5.0,3.8 Q -8.8,5.0 -11.0,0 Z" fill="#2effb0" opacity="0.95" filter="url(#glowS)" class="jpulse"/><path d="M -11.0,0 A 11.0 11.0 0 0 1 11.0,0 Q 8.8,5.0 5.0,3.8 Q 2.2,5.5 0,3.8 Q -2.2,5.5 -5.0,3.8 Q -8.8,5.0 -11.0,0 Z" fill="none" stroke="#2effb0" stroke-width="0.8" opacity="0.47" transform="scale(1.18)" /><path d="M -7.7,3.8 q -3,7.2 2,14.3" stroke="#2effb0" stroke-width="0.9" fill="none" opacity="0.66" class="sway"/><path d="M -3.8,3.8 q 3,8.6 -2,17.3" stroke="#2effb0" stroke-width="0.9" fill="none" opacity="0.66" class="sway"/><path d="M 0.0,3.8 q -3,5.0 2,9.9" stroke="#2effb0" stroke-width="0.9" fill="none" opacity="0.66" class="sway"/><path d="M 3.8,3.8 q 3,8.9 -2,17.8" stroke="#2effb0" stroke-width="0.9" fill="none" opacity="0.66" class="sway"/><path d="M 7.7,3.8 q -3,6.8 2,13.5" stroke="#2effb0" stroke-width="0.9" fill="none" opacity="0.66" class="sway"/><text x="0" y="33" class="jlbl" text-anchor="middle" opacity="0.95">react-dom</text></g></g><g transform="translate(720,126)"><g class="drift" style="animation-delay:4.9s"><path d="M -11.0,0 A 11.0 11.0 0 0 1 11.0,0 Q 8.8,5.0 5.0,3.8 Q 2.2,5.5 0,3.8 Q -2.2,5.5 -5.0,3.8 Q -8.8,5.0 -11.0,0 Z" fill="#2effb0" opacity="0.95" filter="url(#glowS)" class="jpulse"/><path d="M -11.0,0 A 11.0 11.0 0 0 1 11.0,0 Q 8.8,5.0 5.0,3.8 Q 2.2,5.5 0,3.8 Q -2.2,5.5 -5.0,3.8 Q -8.8,5.0 -11.0,0 Z" fill="none" stroke="#2effb0" stroke-width="0.8" opacity="0.47" transform="scale(1.18)" /><path d="M -7.7,3.8 q -3,7.2 2,14.3" stroke="#2effb0" stroke-width="0.9" fill="none" opacity="0.66" class="sway"/><path d="M -3.8,3.8 q 3,8.6 -2,17.3" stroke="#2effb0" stroke-width="0.9" fill="none" opacity="0.66" class="sway"/><path d="M 0.0,3.8 q -3,5.0 2,9.9" stroke="#2effb0" stroke-width="0.9" fill="none" opacity="0.66" class="sway"/><path d="M 3.8,3.8 q 3,8.9 -2,17.8" stroke="#2effb0" stroke-width="0.9" fill="none" opacity="0.66" class="sway"/><path d="M 7.7,3.8 q -3,6.8 2,13.5" stroke="#2effb0" stroke-width="0.9" fill="none" opacity="0.66" class="sway"/><text x="0" y="33" class="jlbl" text-anchor="middle" opacity="0.95">tailwindcss</text></g></g><g transform="translate(810,159)"><g class="drift" style="animation-delay:5.6s"><path d="M -11.0,0 A 11.0 11.0 0 0 1 11.0,0 Q 8.8,5.0 5.0,3.8 Q 2.2,5.5 0,3.8 Q -2.2,5.5 -5.0,3.8 Q -8.8,5.0 -11.0,0 Z" fill="#2effb0" opacity="0.95" filter="url(#glowS)" class="jpulse"/><path d="M -11.0,0 A 11.0 11.0 0 0 1 11.0,0 Q 8.8,5.0 5.0,3.8 Q 2.2,5.5 0,3.8 Q -2.2,5.5 -5.0,3.8 Q -8.8,5.0 -11.0,0 Z" fill="none" stroke="#2effb0" stroke-width="0.8" opacity="0.47" transform="scale(1.18)" /><path d="M -7.7,3.8 q -3,7.2 2,14.3" stroke="#2effb0" stroke-width="0.9" fill="none" opacity="0.66" class="sway"/><path d="M -3.8,3.8 q 3,8.6 -2,17.3" stroke="#2effb0" stroke-width="0.9" fill="none" opacity="0.66" class="sway"/><path d="M 0.0,3.8 q -3,5.0 2,9.9" stroke="#2effb0" stroke-width="0.9" fill="none" opacity="0.66" class="sway"/><path d="M 3.8,3.8 q 3,8.9 -2,17.8" stroke="#2effb0" stroke-width="0.9" fill="none" opacity="0.66" class="sway"/><path d="M 7.7,3.8 q -3,6.8 2,13.5" stroke="#2effb0" stroke-width="0.9" fill="none" opacity="0.66" class="sway"/><text x="0" y="33" class="jlbl" text-anchor="middle" opacity="0.95">rich</text></g></g><g transform="translate(318,270)"><g class="drift" style="animation-delay:0.3s"><path d="M -9.0,0 A 9.0 9.0 0 0 1 9.0,0 Q 7.2,4.0 4.0,3.1 Q 1.8,4.5 0,3.1 Q -1.8,4.5 -4.0,3.1 Q -7.2,4.0 -9.0,0 Z" fill="#1a8f9e" opacity="0.6" class="jpulse"/><path d="M -9.0,0 A 9.0 9.0 0 0 1 9.0,0 Q 7.2,4.0 4.0,3.1 Q 1.8,4.5 0,3.1 Q -1.8,4.5 -4.0,3.1 Q -7.2,4.0 -9.0,0 Z" fill="none" stroke="#1a8f9e" stroke-width="0.8" opacity="0.30" transform="scale(1.18)" /><path d="M -6.3,3.1 q -3,5.9 2,11.7" stroke="#1a8f9e" stroke-width="0.9" fill="none" opacity="0.42" class="sway"/><path d="M -3.1,3.1 q 3,7.1 -2,14.1" stroke="#1a8f9e" stroke-width="0.9" fill="none" opacity="0.42" class="sway"/><path d="M 0.0,3.1 q -3,4.1 2,8.1" stroke="#1a8f9e" stroke-width="0.9" fill="none" opacity="0.42" class="sway"/><path d="M 3.1,3.1 q 3,7.3 -2,14.6" stroke="#1a8f9e" stroke-width="0.9" fill="none" opacity="0.42" class="sway"/><path d="M 6.3,3.1 q -3,5.5 2,11.1" stroke="#1a8f9e" stroke-width="0.9" fill="none" opacity="0.42" class="sway"/><text x="0" y="29" class="jlbl" text-anchor="middle" opacity="0.6">beautifulsoup4</text></g></g><g transform="translate(618,292)"><g class="drift" style="animation-delay:1.0s"><path d="M -9.0,0 A 9.0 9.0 0 0 1 9.0,0 Q 7.2,4.0 4.0,3.1 Q 1.8,4.5 0,3.1 Q -1.8,4.5 -4.0,3.1 Q -7.2,4.0 -9.0,0 Z" fill="#1a8f9e" opacity="0.6" class="jpulse"/><path d="M -9.0,0 A 9.0 9.0 0 0 1 9.0,0 Q 7.2,4.0 4.0,3.1 Q 1.8,4.5 0,3.1 Q -1.8,4.5 -4.0,3.1 Q -7.2,4.0 -9.0,0 Z" fill="none" stroke="#1a8f9e" stroke-width="0.8" opacity="0.30" transform="scale(1.18)" /><path d="M -6.3,3.1 q -3,5.9 2,11.7" stroke="#1a8f9e" stroke-width="0.9" fill="none" opacity="0.42" class="sway"/><path d="M -3.1,3.1 q 3,7.1 -2,14.1" stroke="#1a8f9e" stroke-width="0.9" fill="none" opacity="0.42" class="sway"/><path d="M 0.0,3.1 q -3,4.1 2,8.1" stroke="#1a8f9e" stroke-width="0.9" fill="none" opacity="0.42" class="sway"/><path d="M 3.1,3.1 q 3,7.3 -2,14.6" stroke="#1a8f9e" stroke-width="0.9" fill="none" opacity="0.42" class="sway"/><path d="M 6.3,3.1 q -3,5.5 2,11.1" stroke="#1a8f9e" stroke-width="0.9" fill="none" opacity="0.42" class="sway"/><text x="0" y="29" class="jlbl" text-anchor="middle" opacity="0.6">fastapi</text></g></g>
<ellipse cx="450.0" cy="575" rx="430" ry="190" fill="url(#dragonHalo)"/>
<g transform="translate(450,575)"><g class="dragonfloat"><path d="M -131.0,2.1 L -127.2,4.6 L -123.2,7.0 L -119.2,9.3 L -115.1,11.6 L -110.9,13.7 L -106.7,15.6 L -102.4,17.2 L -98.0,18.6 L -93.5,19.6 L -89.0,20.2 L -84.3,20.4 L -79.7,20.1 L -75.0,19.4 L -70.3,18.3 L -65.7,16.7 L -61.2,14.8 L -56.7,12.6 L -52.2,10.2 L -47.9,7.6 L -43.6,4.9 L -39.3,2.2 L -35.2,-0.4 L -31.1,-2.9 L -27.1,-5.2 L -23.2,-7.1 L -19.5,-8.8 L -15.9,-10.0 L -12.5,-10.9 L -9.3,-11.3 L -6.2,-11.4 L -3.1,-11.0 L -0.1,-10.3 L 3.1,-9.2 L 6.4,-7.6 L 9.8,-5.6 L 13.3,-3.2 L 17.0,-0.4 L 20.8,2.7 L 24.6,6.1 L 28.6,9.7 L 32.7,13.4 L 36.8,17.1 L 41.1,20.8 L 45.6,24.2 L 50.2,27.5 L 55.0,30.3 L 60.2,32.7 L 65.6,34.5 L 71.2,35.6 L 77.0,35.8 L 82.8,35.1 L 88.5,33.6 L 94.0,31.3 L 99.2,28.5 L 104.1,25.1 L 108.9,21.4 L 113.5,17.3 L 118.0,13.1 L 122.3,8.8 L 126.6,4.5 L 130.7,0.4 L 134.7,-3.5 L 138.8,-7.2 L 121.2,-25.7 L 117.0,-21.6 L 112.8,-17.1 L 108.7,-12.6 L 104.6,-8.2 L 100.7,-4.1 L 97.0,-0.2 L 93.3,3.3 L 89.8,6.3 L 86.5,8.8 L 83.5,10.7 L 80.7,12.1 L 78.1,13.0 L 75.7,13.5 L 73.2,13.5 L 70.6,13.2 L 67.8,12.5 L 64.6,11.2 L 61.2,9.4 L 57.6,7.2 L 53.8,4.5 L 49.8,1.5 L 45.7,-1.8 L 41.5,-5.3 L 37.3,-8.8 L 32.9,-12.3 L 28.4,-15.6 L 23.8,-18.7 L 19.1,-21.6 L 14.3,-24.0 L 9.3,-26.0 L 4.2,-27.4 L -1.0,-28.2 L -6.2,-28.4 L -11.3,-27.9 L -16.3,-26.9 L -21.2,-25.3 L -25.9,-23.3 L -30.4,-20.9 L -34.8,-18.3 L -39.1,-15.5 L -43.3,-12.6 L -47.3,-9.6 L -51.4,-6.7 L -55.3,-3.8 L -59.2,-1.1 L -63.0,1.3 L -66.8,3.5 L -70.5,5.4 L -74.1,7.0 L -77.7,8.2 L -81.3,9.1 L -84.9,9.7 L -88.5,9.9 L -92.2,9.7 L -96.0,9.3 L -99.8,8.5 L -103.8,7.4 L -107.8,6.1 L -111.9,4.6 L -116.1,3.0 L -120.3,1.2 L -124.6,-0.5 L -129.0,-2.1 Z" fill="#14e0c8" opacity="0.33" filter="url(#blur4)" class="pulse"/><path d="M -130.6,1.2 L -126.6,3.6 L -122.6,5.8 L -118.5,8.0 L -114.4,10.1 L -110.3,12.1 L -106.1,13.9 L -101.9,15.4 L -97.6,16.7 L -93.2,17.6 L -88.9,18.1 L -84.4,18.2 L -80.0,17.9 L -75.6,17.1 L -71.1,15.9 L -66.7,14.4 L -62.3,12.5 L -58.0,10.3 L -53.7,7.9 L -49.4,5.2 L -45.2,2.5 L -41.0,-0.2 L -36.8,-2.9 L -32.7,-5.5 L -28.7,-7.9 L -24.7,-10.0 L -20.8,-11.8 L -17.0,-13.2 L -13.3,-14.2 L -9.7,-14.7 L -6.2,-14.9 L -2.7,-14.6 L 0.8,-13.8 L 4.4,-12.6 L 8.0,-11.0 L 11.7,-8.9 L 15.5,-6.4 L 19.3,-3.5 L 23.3,-0.4 L 27.2,3.1 L 31.3,6.6 L 35.4,10.3 L 39.5,13.9 L 43.7,17.4 L 48.1,20.7 L 52.5,23.7 L 57.0,26.4 L 61.7,28.5 L 66.6,30.1 L 71.6,31.0 L 76.7,31.2 L 81.9,30.6 L 86.9,29.2 L 91.8,27.1 L 96.6,24.4 L 101.2,21.2 L 105.7,17.6 L 110.1,13.7 L 114.4,9.6 L 118.7,5.3 L 122.9,1.0 L 127.0,-3.2 L 131.1,-7.2 L 135.2,-11.0 L 124.8,-21.9 L 120.7,-17.8 L 116.5,-13.5 L 112.3,-9.1 L 108.3,-4.7 L 104.3,-0.5 L 100.4,3.4 L 96.5,7.0 L 92.8,10.2 L 89.1,12.9 L 85.6,15.0 L 82.3,16.5 L 79.1,17.6 L 75.9,18.1 L 72.8,18.1 L 69.6,17.6 L 66.2,16.6 L 62.7,15.2 L 59.0,13.2 L 55.1,10.7 L 51.2,7.9 L 47.1,4.7 L 43.0,1.3 L 38.9,-2.2 L 34.7,-5.7 L 30.4,-9.2 L 26.1,-12.5 L 21.7,-15.5 L 17.2,-18.3 L 12.6,-20.6 L 8.0,-22.5 L 3.3,-23.9 L -1.4,-24.7 L -6.2,-24.9 L -10.9,-24.5 L -15.6,-23.6 L -20.1,-22.1 L -24.6,-20.3 L -28.9,-18.1 L -33.2,-15.6 L -37.4,-12.9 L -41.6,-10.1 L -45.7,-7.2 L -49.8,-4.3 L -53.8,-1.5 L -57.8,1.2 L -61.7,3.6 L -65.6,5.8 L -69.5,7.7 L -73.3,9.3 L -77.1,10.5 L -81.0,11.4 L -84.8,11.9 L -88.6,12.0 L -92.5,11.8 L -96.4,11.2 L -100.4,10.3 L -104.4,9.1 L -108.5,7.7 L -112.6,6.0 L -116.7,4.3 L -120.9,2.4 L -125.1,0.5 L -129.4,-1.2 Z" fill="#5f7d85"/><path d="M -96.5,11.7 A 2.2 2.2 0 0 1 -97.5,16.1 M -80.9,12.0 A 2.6 2.6 0 0 1 -80.1,17.2 M -65.3,6.5 A 3.0 3.0 0 0 1 -62.7,11.8 M -49.3,-3.6 A 3.3 3.3 0 0 1 -45.6,1.8 M -32.8,-14.8 A 3.6 3.6 0 0 1 -29.1,-8.6 M -15.3,-22.6 A 3.9 3.9 0 0 1 -13.5,-15.1 M 3.1,-22.9 A 4.1 4.1 0 0 1 1.1,-14.8 M 21.0,-14.6 A 4.4 4.4 0 0 1 16.1,-7.3 M 38.1,-1.3 A 4.7 4.7 0 0 1 32.0,5.8 M 54.4,11.7 A 4.9 4.9 0 0 1 48.8,19.7 M 69.3,18.9 A 5.1 5.1 0 0 1 66.9,28.9 M 82.8,17.8 A 5.4 5.4 0 0 1 86.5,27.9 M 97.4,8.1 A 5.6 5.6 0 0 1 104.8,16.6 " stroke="#14e0c8" stroke-width="0.7" fill="none" opacity="0.25"/><path d="M -88.9,18.1 l -3.3,6.7 l 3.0,2.0 Z M -71.1,15.9 l -0.9,6.4 l 3.0,2.0 Z M -53.7,7.9 l 0.5,5.7 l 3.0,2.0 Z M -36.8,-2.9 l 0.7,5.6 l 3.0,2.0 Z M -20.8,-11.8 l -0.3,6.2 l 3.0,2.0 Z M -6.2,-14.9 l -3.0,6.7 l 3.0,2.0 Z M 8.0,-11.0 l -5.9,6.1 l 3.0,2.0 Z M 23.3,-0.4 l -7.2,5.2 l 3.0,2.0 Z M 39.5,13.9 l -7.3,5.2 l 3.0,2.0 Z M 57.0,26.4 l -6.0,6.0 l 3.0,2.0 Z M 76.7,31.2 l -2.6,6.7 l 3.0,2.0 Z M 96.6,24.4 l 0.7,5.7 l 3.0,2.0 Z " fill="#14e0c8" opacity="0.55"/><path d="M 122.5,-24.0 Q 137.5,-27.7 145.0,-18.7 L 146.2,-15.3 Q 137.5,-6.7 122.5,-9.0 Z" fill="#5f7d85"/><circle cx="135.2" cy="-19.1" r="2.1" fill="#14e0c8" filter="url(#glowS)" class="pulse"/></g></g>
<text x="450.0" y="790" class="dlabel" text-anchor="middle">DEEP EEL</text>
<text x="450.0" y="808" class="dsub" text-anchor="middle">TIER 3/10 · 59 TOTAL COMMITS</text>
<g transform="translate(130.0,880)"><rect x="0" y="0" width="640" height="190" rx="14" fill="#0a0f1e" stroke="#1c2a45" stroke-width="2"/><rect x="6" y="6" width="628" height="178" rx="10" fill="none" stroke="#1c2a45" stroke-width="0.7" opacity="0.6"/><circle cx="16" cy="16" r="2.4" fill="#1c2a45"/><circle cx="16" cy="174" r="2.4" fill="#1c2a45"/><circle cx="624" cy="16" r="2.4" fill="#1c2a45"/><circle cx="624" cy="174" r="2.4" fill="#1c2a45"/><text x="320.0" y="30" class="plate" text-anchor="middle">DSV JAIN PRASAD ALBER</text><text x="320.0" y="46" class="platesub" text-anchor="middle">CYBERSECURITY × AI · B.E. CS @ BITS PILANI DUBAI</text><line x1="20" y1="56" x2="620" y2="56" stroke="#1c2a45" stroke-width="1"/><text x="320.0" y="78" class="zone" text-anchor="middle" fill="#00ff9c">DEPTH ZONE · TWILIGHT ZONE — DEEP EEL</text><g transform="translate(80.0,122)"><path d="M -26,8 A 27 27 0 0 1 26,8" fill="none" stroke="#1c2a45" stroke-width="5" stroke-linecap="round"/><path d="M -26,8 A 27 27 0 0 1 26,8" fill="none" stroke="#14e0c8" stroke-width="5" stroke-linecap="round" stroke-dasharray="60 95" class="gaugepulse"/><text x="0" y="4" class="gval" text-anchor="middle" fill="#14e0c8">59</text><text x="0" y="26" class="glbl" text-anchor="middle">COMMITS</text></g><g transform="translate(240.0,122)"><path d="M -26,8 A 27 27 0 0 1 26,8" fill="none" stroke="#1c2a45" stroke-width="5" stroke-linecap="round"/><path d="M -26,8 A 27 27 0 0 1 26,8" fill="none" stroke="#00ff9c" stroke-width="5" stroke-linecap="round" stroke-dasharray="60 95" class="gaugepulse"/><text x="0" y="4" class="gval" text-anchor="middle" fill="#00ff9c">0d</text><text x="0" y="26" class="glbl" text-anchor="middle">STREAK</text></g><g transform="translate(400.0,122)"><path d="M -26,8 A 27 27 0 0 1 26,8" fill="none" stroke="#1c2a45" stroke-width="5" stroke-linecap="round"/><path d="M -26,8 A 27 27 0 0 1 26,8" fill="none" stroke="#ffd166" stroke-width="5" stroke-linecap="round" stroke-dasharray="60 95" class="gaugepulse"/><text x="0" y="4" class="gval" text-anchor="middle" fill="#ffd166">1</text><text x="0" y="26" class="glbl" text-anchor="middle">OPEN PRS</text></g><g transform="translate(560.0,122)"><path d="M -26,8 A 27 27 0 0 1 26,8" fill="none" stroke="#1c2a45" stroke-width="5" stroke-linecap="round"/><path d="M -26,8 A 27 27 0 0 1 26,8" fill="none" stroke="#4f5fd5" stroke-width="5" stroke-linecap="round" stroke-dasharray="60 95" class="gaugepulse"/><text x="0" y="4" class="gval" text-anchor="middle" fill="#4f5fd5">8</text><text x="0" y="26" class="glbl" text-anchor="middle">VESSELS</text></g><circle cx="24" cy="174" r="3" fill="#00ff9c" class="flicker"/><text x="34" y="178" class="stamp">SYSTEMS NOMINAL · LAST SONAR SWEEP 2026-06-11 21:13 UTC</text></g>
<g transform="translate(165,300)"><g class="swim" style="animation-delay:0.0s"><g transform="scale(1)"><path d="M -43.0,0.0 Q -39.3,4.0 -37.4,5.6 Q -35.5,7.3 -33.7,8.2 Q -31.8,9.1 -29.9,9.2 Q -28.0,9.3 -26.2,8.5 Q -24.3,7.7 -22.4,6.2 Q -20.6,4.7 -18.7,2.7 Q -16.8,0.8 -15.0,-1.3 Q -13.1,-3.3 -11.2,-5.0 Q -9.3,-6.7 -7.5,-7.8 Q -5.6,-8.9 -3.7,-9.2 Q -1.9,-9.4 0.0,-8.8 Q 1.9,-8.1 3.7,-6.7 Q 5.6,-5.3 7.5,-3.4 Q 9.3,-1.5 11.2,0.5 Q 13.1,2.6 15.0,4.4 Q 16.8,6.2 18.7,7.4 Q 20.6,8.6 22.4,9.0 Q 24.3,9.5 26.2,9.0 Q 28.0,8.5 29.9,7.2 Q 31.8,6.0 33.7,4.1 Q 35.5,2.3 37.4,0.3 Q 39.3,-1.8 41.1,-3.7 T 43.0,-5.6" fill="none" stroke="#7d8a8f" stroke-width="1.5" stroke-linecap="round"/><circle cx="45.0" cy="-5.6" r="1.1" fill="#7d8a8f"/><circle cx="45.5" cy="-5.9" r="0.8" fill="#3a4750"/></g><text x="0" y="53" class="lbl" text-anchor="middle">jainalber</text><text x="0" y="65" class="sub" text-anchor="middle">Sea Krait · st1 · 30 commits</text></g></g><g transform="translate(735,406)"><g class="swim" style="animation-delay:0.9s"><g transform="scale(1) scale(-1,1)"><path d="M -43.0,0.0 Q -23.7,-8.4 -6.5,-10.2 Q 10.8,-12.0 22.6,-8.1 Q 34.4,-4.2 38.7,-2.1 Q 43.0,0.0 38.7,2.1 Q 34.4,4.2 22.6,8.1 Q 10.8,12.0 -6.5,10.2 T -23.7,8.4 Z" fill="url(#tunaGrad)"/><path d="M -43.0,0.0 L -55.0,-13.2 L -48.2,0.0 L -55.0,13.2 Z" fill="url(#tunaGrad)"/><circle cx="33.5" cy="-2.2" r="1.7" fill="#0a0f14"/><path d="M 0,-6.5 Q -8.8,-20.7 -17.6,-34.5" stroke="#e8edf0" stroke-width="1.3" fill="none" opacity="0.8" class="sway"/><path d="M 0,-6.5 Q -1.5,-23.1 -3.0,-38.6" stroke="#ff5d5d" stroke-width="1.3" fill="none" opacity="0.8" class="sway"/><path d="M 0,-6.5 Q 6.0,-22.1 12.0,-36.8" stroke="#e8edf0" stroke-width="1.3" fill="none" opacity="0.8" class="sway"/><path d="M 0,-6.5 Q 12.6,-17.7 25.1,-29.4" stroke="#ff5d5d" stroke-width="1.3" fill="none" opacity="0.8" class="sway"/><path d="M 0,-6.5 Q 17.2,-10.5 34.5,-17.6" stroke="#e8edf0" stroke-width="1.3" fill="none" opacity="0.8" class="sway"/></g><text x="0" y="53" class="lbl" text-anchor="middle">newsly</text><text x="0" y="65" class="sub" text-anchor="middle">Regal Firetail · st1 · 0 commits</text></g></g><g transform="translate(165,841)"><g class="swim" style="animation-delay:1.8s"><g transform="scale(1)"><path d="M -43.0,0.0 Q -39.3,4.0 -37.4,5.6 Q -35.5,7.3 -33.7,8.2 Q -31.8,9.1 -29.9,9.2 Q -28.0,9.3 -26.2,8.5 Q -24.3,7.7 -22.4,6.2 Q -20.6,4.7 -18.7,2.7 Q -16.8,0.8 -15.0,-1.3 Q -13.1,-3.3 -11.2,-5.0 Q -9.3,-6.7 -7.5,-7.8 Q -5.6,-8.9 -3.7,-9.2 Q -1.9,-9.4 0.0,-8.8 Q 1.9,-8.1 3.7,-6.7 Q 5.6,-5.3 7.5,-3.4 Q 9.3,-1.5 11.2,0.5 Q 13.1,2.6 15.0,4.4 Q 16.8,6.2 18.7,7.4 Q 20.6,8.6 22.4,9.0 Q 24.3,9.5 26.2,9.0 Q 28.0,8.5 29.9,7.2 Q 31.8,6.0 33.7,4.1 Q 35.5,2.3 37.4,0.3 Q 39.3,-1.8 41.1,-3.7 T 43.0,-5.6" fill="none" stroke="#7d8a8f" stroke-width="1.5" stroke-linecap="round"/><circle cx="45.0" cy="-5.6" r="1.1" fill="#7d8a8f"/><circle cx="45.5" cy="-5.9" r="0.8" fill="#3a4750"/></g><text x="0" y="53" class="lbl" text-anchor="middle">vizhi</text><text x="0" y="65" class="sub" text-anchor="middle">Sea Krait · st1 · 0 commits</text></g></g><g transform="translate(735,1217)"><g class="swim" style="animation-delay:2.7s"><g transform="scale(1) scale(-1,1)"><path d="M -43.0,0.0 Q -39.3,4.0 -37.4,5.6 Q -35.5,7.3 -33.7,8.2 Q -31.8,9.1 -29.9,9.2 Q -28.0,9.3 -26.2,8.5 Q -24.3,7.7 -22.4,6.2 Q -20.6,4.7 -18.7,2.7 Q -16.8,0.8 -15.0,-1.3 Q -13.1,-3.3 -11.2,-5.0 Q -9.3,-6.7 -7.5,-7.8 Q -5.6,-8.9 -3.7,-9.2 Q -1.9,-9.4 0.0,-8.8 Q 1.9,-8.1 3.7,-6.7 Q 5.6,-5.3 7.5,-3.4 Q 9.3,-1.5 11.2,0.5 Q 13.1,2.6 15.0,4.4 Q 16.8,6.2 18.7,7.4 Q 20.6,8.6 22.4,9.0 Q 24.3,9.5 26.2,9.0 Q 28.0,8.5 29.9,7.2 Q 31.8,6.0 33.7,4.1 Q 35.5,2.3 37.4,0.3 Q 39.3,-1.8 41.1,-3.7 T 43.0,-5.6" fill="none" stroke="#7d8a8f" stroke-width="1.5" stroke-linecap="round"/><circle cx="45.0" cy="-5.6" r="1.1" fill="#7d8a8f"/><circle cx="45.5" cy="-5.9" r="0.8" fill="#3a4750"/></g><text x="0" y="53" class="lbl" text-anchor="middle">deriv_assessment</text><text x="0" y="65" class="sub" text-anchor="middle">Sea Krait · st1 · 0 commits</text></g></g><g transform="translate(165,1323)"><g class="swim" style="animation-delay:3.6s"><g transform="scale(1)"><path d="M -43.0,0.0 Q -39.3,4.0 -37.4,5.6 Q -35.5,7.3 -33.7,8.2 Q -31.8,9.1 -29.9,9.2 Q -28.0,9.3 -26.2,8.5 Q -24.3,7.7 -22.4,6.2 Q -20.6,4.7 -18.7,2.7 Q -16.8,0.8 -15.0,-1.3 Q -13.1,-3.3 -11.2,-5.0 Q -9.3,-6.7 -7.5,-7.8 Q -5.6,-8.9 -3.7,-9.2 Q -1.9,-9.4 0.0,-8.8 Q 1.9,-8.1 3.7,-6.7 Q 5.6,-5.3 7.5,-3.4 Q 9.3,-1.5 11.2,0.5 Q 13.1,2.6 15.0,4.4 Q 16.8,6.2 18.7,7.4 Q 20.6,8.6 22.4,9.0 Q 24.3,9.5 26.2,9.0 Q 28.0,8.5 29.9,7.2 Q 31.8,6.0 33.7,4.1 Q 35.5,2.3 37.4,0.3 Q 39.3,-1.8 41.1,-3.7 T 43.0,-5.6" fill="none" stroke="#7d8a8f" stroke-width="1.5" stroke-linecap="round"/><circle cx="45.0" cy="-5.6" r="1.1" fill="#7d8a8f"/><circle cx="45.5" cy="-5.9" r="0.8" fill="#3a4750"/></g><text x="0" y="53" class="lbl" text-anchor="middle">AuraNet</text><text x="0" y="65" class="sub" text-anchor="middle">Sea Krait · st1 · 2 commits</text></g></g><g transform="translate(735,1429)"><g class="swim" style="animation-delay:4.5s"><g transform="scale(1) scale(-1,1)"><path d="M -43.0,0.0 Q -39.3,4.0 -37.4,5.6 Q -35.5,7.3 -33.7,8.2 Q -31.8,9.1 -29.9,9.2 Q -28.0,9.3 -26.2,8.5 Q -24.3,7.7 -22.4,6.2 Q -20.6,4.7 -18.7,2.7 Q -16.8,0.8 -15.0,-1.3 Q -13.1,-3.3 -11.2,-5.0 Q -9.3,-6.7 -7.5,-7.8 Q -5.6,-8.9 -3.7,-9.2 Q -1.9,-9.4 0.0,-8.8 Q 1.9,-8.1 3.7,-6.7 Q 5.6,-5.3 7.5,-3.4 Q 9.3,-1.5 11.2,0.5 Q 13.1,2.6 15.0,4.4 Q 16.8,6.2 18.7,7.4 Q 20.6,8.6 22.4,9.0 Q 24.3,9.5 26.2,9.0 Q 28.0,8.5 29.9,7.2 Q 31.8,6.0 33.7,4.1 Q 35.5,2.3 37.4,0.3 Q 39.3,-1.8 41.1,-3.7 T 43.0,-5.6" fill="none" stroke="#7d8a8f" stroke-width="1.5" stroke-linecap="round"/><circle cx="45.0" cy="-5.6" r="1.1" fill="#7d8a8f"/><circle cx="45.5" cy="-5.9" r="0.8" fill="#3a4750"/></g><text x="0" y="53" class="lbl" text-anchor="middle">SetinelLog-AI</text><text x="0" y="65" class="sub" text-anchor="middle">Sea Krait · st1 · 3 commits</text></g></g><g transform="translate(165,1534)"><g class="swim" style="animation-delay:5.4s"><g transform="scale(1)"><path d="M -43.0,0.0 Q -19.4,-9.7 -3.2,-11.3 Q 12.9,-12.9 24.7,-8.4 Q 36.5,-3.9 40.8,-1.9 Q 45.1,0.0 40.8,1.9 Q 36.5,3.9 24.7,7.1 Q 12.9,10.3 -3.2,9.7 T -19.4,9.0 Z" fill="url(#sharkGrad)"/><path d="M -2.1,-12.3 L 5.2,-24.5 L 12.9,-11.6 Z" fill="url(#sharkGrad)"/><path d="M -43.0,0.0 L -58.1,-19.4 L -49.4,0.0 L -55.9,11.6 Z" fill="url(#sharkGrad)"/><path d="M 10.8,9.7 l -7.7,11.6 l -9.0,-7.1 Z" fill="url(#sharkGrad)"/><circle cx="34.4" cy="-3.2" r="1.7" fill="#05080d"/><path d="M 40.9,2.8 q -10.8,6.5 -23.7,5.4" stroke="#05080d" stroke-width="1.6" fill="none"/></g><text x="0" y="53" class="lbl" text-anchor="middle">Penetration-Test-Reports---HTB-Retired-Machines</text><text x="0" y="65" class="sub" text-anchor="middle">Reef Shark · st1 · 8 commits</text></g></g><g transform="translate(735,1640)"><g class="swim" style="animation-delay:6.3s"><g transform="scale(1) scale(-1,1)"><path d="M -43.0,0.0 Q -19.4,-9.7 -3.2,-11.3 Q 12.9,-12.9 24.7,-8.4 Q 36.5,-3.9 40.8,-1.9 Q 45.1,0.0 40.8,1.9 Q 36.5,3.9 24.7,7.1 Q 12.9,10.3 -3.2,9.7 T -19.4,9.0 Z" fill="url(#sharkGrad)"/><path d="M -2.1,-12.3 L 5.2,-24.5 L 12.9,-11.6 Z" fill="url(#sharkGrad)"/><path d="M -43.0,0.0 L -58.1,-19.4 L -49.4,0.0 L -55.9,11.6 Z" fill="url(#sharkGrad)"/><path d="M 10.8,9.7 l -7.7,11.6 l -9.0,-7.1 Z" fill="url(#sharkGrad)"/><circle cx="34.4" cy="-3.2" r="1.7" fill="#05080d"/><path d="M 40.9,2.8 q -10.8,6.5 -23.7,5.4" stroke="#05080d" stroke-width="1.6" fill="none"/></g><text x="0" y="53" class="lbl" text-anchor="middle">Computer-Networks-Lab</text><text x="0" y="65" class="sub" text-anchor="middle">Reef Shark · st1 · 16 commits</text></g></g>
</svg>